<?xml version="1.0" encoding="UTF-8"?>
<svg width="43px" height="43px" viewBox="0 0 43 43" version="1.1" xmlns="http://www.w3.org/2000/svg" xmlns:xlink="http://www.w3.org/1999/xlink">
    <title>dashboard</title>
    <g id="Mid" stroke="none" stroke-width="1" fill="none" fill-rule="evenodd">
        <g id="View-1-" transform="translate(-30.000000, -193.000000)" fill="#100050" fill-rule="nonzero">
            <g id="dashboard" transform="translate(30.000000, 193.000000)">
                <path d="M36.7022847,6.29477879 C32.6833099,2.25683143 27.2096714,-0.00926835153 21.5029137,2.84931701e-05 C9.63248478,2.84931701e-05 0,9.63331263 0,21.5046913 C0,27.2119056 2.26591849,32.6766565 6.29421803,36.7052784 C14.6865087,45.0982405 28.3006692,45.0982405 36.7022847,36.7052784 C45.1039002,28.3123162 45.0945754,14.6970665 36.7022847,6.29477879 Z M7.88875327,35.6421698 C9.52058757,33.8516712 11.469464,32.3968911 13.6514596,31.3431081 C20.9620772,27.8273895 29.7180339,29.580586 35.1077495,35.6421698 C27.5173888,42.9720235 15.479114,42.9720235 7.88875327,35.6421698 Z M36.3945674,34.2899704 C30.436041,27.6968323 20.85018,25.8224041 12.8495296,29.6645157 C10.4996882,30.7929028 8.37364117,32.3689146 6.60193536,34.2806449 C3.54341163,30.7276242 1.85562872,26.1954246 1.86491506,21.5046913 C1.86491506,10.6777701 10.6768587,1.86515987 21.5029137,1.86515987 C32.3289688,1.86515987 41.140874,10.6777701 41.140874,21.5046913 C41.140874,26.1954246 39.4624159,30.7369497 36.3945674,34.2899704 Z" id="Shape"></path>
                <path d="M22.5,6 C22.225,6 22,6.39276808 22,6.87281796 L22,12.127182 C22,12.6159601 22.225,13 22.5,13 C22.775,13 23,12.6072319 23,12.127182 L23,6.87281796 C23,6.39276808 22.775,6 22.5,6 Z" id="Path"></path>
                <path d="M38.127182,22 L32.872818,22 C32.3840399,22 32,22.225 32,22.5 C32,22.775 32.3927681,23 32.872818,23 L38.127182,23 C38.6072319,23 39,22.775 39,22.5 C39,22.225 38.6072319,22 38.127182,22 Z" id="Path"></path>
                <path d="M10.127182,22 L4.87281796,22 C4.39276808,22 4,22.225 4,22.5 C4,22.775 4.39276808,23 4.87281796,23 L10.127182,23 C10.6072319,23 11,22.775 11,22.5 C11,22.225 10.6159601,22 10.127182,22 Z" id="Path"></path>
                <path d="M15.726366,14.3845943 C15.726366,14.3845943 15.726366,14.3845943 15.7168499,14.3750782 L11.6249218,10.2831501 C11.2537935,9.91202171 10.6542784,9.9025056 10.2831501,10.273634 C9.91202171,10.6447623 9.9025056,11.2442774 10.273634,11.6154057 C10.273634,11.6154057 10.273634,11.6154057 10.2831501,11.6249218 L14.3750782,15.7168499 C14.7462065,16.0879783 15.3457216,16.0974944 15.7168499,15.726366 C16.0879783,15.3552377 16.0974944,14.7557226 15.726366,14.3845943 Z" id="Path"></path>
                <path d="M34.7150929,10.2579633 C34.3286749,9.91984755 33.7044612,9.91117792 33.3180432,10.2492937 C33.3180432,10.2492937 33.3180432,10.2492937 33.3081351,10.2579633 L23.5882359,18.7628751 C22.0326557,18.077974 20.1302901,18.6241609 19.3376377,19.9852936 C18.5548936,21.3464263 19.1791073,23.0109962 20.7346875,23.704567 C22.2902677,24.3894681 24.1926333,23.8432811 24.9852856,22.4821485 C25.4410607,21.7018813 25.4410607,20.7742304 24.9852856,19.9939633 L34.7051848,11.4803818 C35.0916028,11.1422661 35.1015109,10.5960791 34.7150929,10.2579633 Z M22.1713698,22.256738 C21.5174316,22.256738 20.9922995,21.7972473 20.9922995,21.2250514 C20.9922995,20.6528555 21.5174316,20.1933649 22.1713698,20.1933649 C22.825308,20.1933649 23.3504402,20.6528555 23.3504402,21.2250514 C23.3504402,21.7972473 22.825308,22.256738 22.1713698,22.256738 Z" id="Shape"></path>
            </g>
        </g>
    </g>
</svg>